<?xml version="1.0" standalone="no"?>
<!DOCTYPE svg PUBLIC "-//W3C//DTD SVG 20010904//EN"
 "http://www.w3.org/TR/2001/REC-SVG-20010904/DTD/svg10.dtd">
<svg version="1.0" xmlns="http://www.w3.org/2000/svg"
 width="640.000000pt" height="640.000000pt" viewBox="0 0 640.000000 640.000000"
 preserveAspectRatio="xMidYMid meet">
<metadata>
Created by potrace 1.11, written by Peter Selinger 2001-2013
</metadata>
<g transform="translate(0.000000,640.000000) scale(0.100000,-0.100000)"
fill="#000000" stroke="none">
<path d="M3139 5756 c-3 -3 -16 -8 -30 -10 -13 -2 -25 -5 -26 -7 -2 -1 -11 -2
-20 -4 -10 -1 -25 -5 -33 -8 -12 -5 -445 -118 -503 -132 -9 -2 -45 -11 -80
-20 -34 -9 -69 -18 -77 -20 -8 -2 -100 -25 -205 -53 -261 -68 -513 -133 -528
-136 -31 -7 -74 -18 -97 -27 -14 -5 -40 -11 -59 -14 -19 -3 -37 -8 -41 -10 -3
-2 -17 -6 -31 -9 -103 -21 -261 -71 -294 -93 -108 -71 -162 -183 -155 -323 1
-19 2 -39 1 -45 -4 -70 -5 -125 -1 -125 3 0 4 -28 2 -62 -4 -103 -3 -158 1
-166 3 -4 1 -29 -3 -55 -4 -26 -4 -50 0 -52 3 -2 3 -29 0 -60 -3 -31 -2 -58 2
-61 5 -3 6 -10 2 -15 -8 -13 -7 -206 1 -219 3 -6 2 -10 -3 -10 -5 0 -6 -20 -2
-45 4 -25 4 -45 0 -45 -4 0 -4 -19 -1 -42 4 -24 4 -60 0 -81 -3 -21 -3 -40 1
-42 4 -3 4 -22 0 -44 -4 -22 -4 -45 0 -51 4 -6 4 -28 0 -48 -3 -20 -3 -51 0
-69 4 -17 4 -52 0 -77 -4 -26 -4 -49 0 -51 3 -2 3 -29 0 -60 -3 -31 -2 -58 2
-61 5 -3 6 -10 3 -15 -4 -5 -6 -55 -5 -112 1 -134 0 -169 -6 -178 -2 -4 0 -10
4 -13 5 -3 6 -26 2 -51 -4 -25 -4 -45 0 -45 4 0 4 -20 0 -45 -4 -25 -4 -45 -1
-45 3 0 5 -28 3 -62 -1 -35 -2 -85 -1 -113 0 -27 0 -57 0 -65 -1 -8 0 -33 0
-55 1 -22 0 -49 0 -60 -5 -79 -5 -125 0 -125 3 0 3 -20 -1 -45 -4 -25 -4 -48
0 -50 4 -3 4 -22 0 -44 -4 -22 -4 -45 1 -52 4 -7 6 -16 3 -21 -4 -6 -5 -48 -3
-108 1 -21 0 -171 -1 -195 0 -11 -2 -44 -3 -73 -1 -28 0 -52 3 -52 3 0 4 -28
2 -62 -1 -35 -2 -78 -2 -95 0 -18 1 -41 1 -50 -1 -10 -1 -59 -1 -108 l-1 -90
-64 5 c-36 3 -65 3 -65 0 0 -3 -25 -5 -55 -5 -30 0 -55 2 -55 5 0 3 -26 4 -57
2 -32 -1 -76 -2 -98 -1 -22 0 -49 0 -60 -1 -11 -1 -27 -1 -35 -1 -8 0 -36 1
-63 1 -26 1 -51 -1 -56 -5 -5 -3 -12 -1 -15 3 -3 5 -26 6 -51 2 -25 -4 -45 -4
-45 -1 0 10 -132 -4 -155 -16 -29 -16 -60 -53 -74 -89 -9 -22 -11 -90 -9 -231
l3 -200 28 -36 c55 -72 -97 -67 1785 -67 l1700 0 4 36 c2 19 1 37 -3 39 -3 3
-3 22 1 44 4 22 4 45 0 51 -4 6 -4 28 0 48 3 20 3 51 0 69 -4 17 -4 52 0 77 4
26 4 49 0 51 -3 2 -3 29 0 60 3 31 2 58 -2 61 -5 3 -6 10 -2 15 3 5 5 49 4 97
-1 90 -1 93 3 180 1 28 -1 52 -4 52 -3 0 -3 20 1 45 4 25 4 48 0 50 -4 3 -4
22 0 44 4 22 4 45 -1 52 -4 7 -6 16 -4 19 5 8 6 44 5 168 -1 51 2 96 5 101 3
5 2 12 -3 15 -4 3 -5 30 -2 61 3 31 2 58 -2 61 -5 3 -6 10 -2 15 8 13 7 206
-1 219 -3 6 -2 10 3 10 5 0 6 20 2 45 -4 25 -4 45 0 45 4 0 4 19 1 42 -4 24
-4 60 0 81 3 21 3 40 -1 42 -4 3 -4 22 0 44 4 22 4 45 0 51 -4 6 -4 28 0 48 3
20 3 51 0 69 -4 17 -4 52 0 77 4 26 4 49 0 51 -3 2 -3 29 0 60 3 31 2 58 -2
61 -5 3 -6 10 -2 15 3 5 5 49 4 97 -1 90 -1 93 3 180 1 28 -1 52 -4 52 -3 0
-3 20 1 45 4 25 4 48 0 50 -4 3 -4 22 0 44 4 22 4 45 -1 52 -4 7 -6 16 -3 21
4 6 5 48 3 108 -1 21 0 171 1 195 0 11 2 44 3 73 1 28 -1 52 -4 52 -3 0 -3 20
1 45 4 25 4 48 0 50 -4 3 -4 22 0 44 4 22 4 45 -1 52 -4 7 -6 16 -3 21 3 4 4
27 4 50 -1 151 -1 180 3 185 3 2 2 17 -2 31 -5 15 -5 36 -1 46 3 11 3 39 0 62
-4 24 -5 46 -2 49 7 6 4 204 -3 215 -3 5 -1 11 4 14 4 3 5 23 1 45 -4 22 -4
45 0 51 4 6 4 26 1 43 -4 18 -4 49 0 70 3 20 3 39 -1 42 -4 3 -4 22 0 44 4 22
4 45 0 51 -4 7 -4 27 0 46 4 18 6 34 4 36 -1 2 -5 39 -8 82 -3 43 -10 84 -15
90 -5 6 -12 22 -16 35 -17 55 -117 145 -185 165 -33 10 -154 19 -161 12z
m-414 -2257 c64 -30 123 -116 144 -209 12 -56 8 -164 -9 -215 -20 -62 -84
-155 -107 -155 -3 0 -15 -7 -25 -16 -22 -21 -108 -26 -153 -11 -30 11 -81 52
-110 89 -16 20 -42 79 -54 122 -12 46 -8 194 6 221 6 11 16 31 22 45 27 61 83
118 134 136 41 15 114 11 152 -7z"/>
<path d="M3858 5123 c-16 -4 -25 -39 -19 -75 2 -17 2 -70 -1 -166 -2 -56 0
-102 3 -102 3 0 3 -19 -1 -42 -3 -24 -3 -54 0 -68 3 -14 3 -44 0 -67 -4 -24
-4 -45 -1 -48 3 -4 4 -21 3 -40 -2 -18 1 -36 7 -40 6 -3 11 -2 11 3 0 4 23 6
50 2 28 -4 50 -4 50 0 0 3 27 3 61 0 33 -3 62 -3 64 0 2 4 23 4 47 0 24 -3 62
-3 86 1 23 3 45 3 47 -1 2 -3 29 -3 60 0 31 3 58 2 61 -2 3 -5 9 -6 14 -3 5 3
44 5 87 5 43 0 107 0 143 0 175 1 174 1 168 -42 -3 -16 -1 -31 3 -34 5 -2 6
-10 3 -18 -7 -19 -10 -146 -3 -146 3 0 3 -20 -1 -45 -4 -25 -4 -48 0 -50 4 -3
4 -22 0 -44 -4 -22 -4 -45 1 -52 4 -7 6 -16 3 -21 -4 -6 -5 -48 -3 -108 1 -21
0 -171 -1 -195 0 -11 -2 -44 -3 -73 -1 -28 1 -52 4 -52 3 0 3 -20 -1 -45 -4
-25 -4 -48 0 -50 4 -3 4 -22 0 -44 -4 -22 -4 -45 1 -52 4 -7 6 -16 3 -21 -4
-6 -5 -48 -3 -108 1 -21 0 -171 -1 -195 0 -11 -2 -44 -3 -73 -1 -28 1 -52 4
-52 3 0 3 -20 -1 -45 -4 -25 -4 -48 0 -50 4 -3 4 -22 0 -44 -4 -22 -4 -45 1
-52 4 -7 6 -16 3 -21 -4 -6 -5 -48 -3 -108 1 -21 0 -171 -1 -195 0 -11 -2 -44
-3 -73 -1 -28 1 -52 4 -52 3 0 3 -20 -1 -45 -4 -25 -4 -48 0 -50 4 -3 4 -22 0
-44 -4 -22 -4 -45 1 -52 4 -7 6 -16 3 -21 -4 -6 -5 -48 -3 -108 1 -21 0 -171
-1 -195 0 -11 -2 -44 -3 -73 -1 -28 1 -52 4 -52 3 0 3 -20 -1 -45 -4 -25 -4
-48 0 -50 4 -3 4 -22 0 -44 -4 -22 -4 -45 0 -51 4 -6 4 -28 0 -48 -3 -20 -4
-47 -1 -60 3 -13 4 -58 1 -101 -3 -43 -3 -91 0 -107 3 -16 3 -46 -1 -67 -3
-20 -3 -39 1 -42 4 -2 4 -25 0 -50 -4 -25 -4 -45 0 -45 4 0 4 -20 0 -45 -4
-25 -4 -45 -1 -45 3 0 5 -28 3 -62 -4 -119 -3 -161 6 -170 5 -5 335 -7 748 -6
l741 3 37 29 c60 46 66 70 66 287 0 206 -5 232 -56 280 -26 25 -130 51 -153
39 -7 -4 -28 -4 -45 0 -17 4 -40 4 -50 0 -11 -3 -38 -4 -60 0 -23 3 -52 3 -66
0 -14 -4 -34 -4 -45 0 -11 3 -33 4 -50 0 -16 -3 -41 -3 -55 0 -14 4 -34 4 -45
0 -11 -4 -34 -4 -51 0 -18 4 -37 4 -44 0 -7 -4 -26 -4 -44 0 -18 4 -42 3 -54
-1 -13 -5 -21 -5 -18 -1 2 4 -24 7 -57 7 -62 0 -62 0 -64 30 0 17 -2 35 -3 40
-1 6 -1 21 0 34 5 60 4 131 -1 131 -3 0 -3 20 1 45 4 25 4 48 0 50 -4 3 -4 22
0 44 4 22 4 45 -1 52 -4 7 -6 16 -3 21 4 6 5 48 3 108 -1 21 0 171 1 195 0 11
2 44 3 73 1 28 -1 52 -4 52 -3 0 -3 20 1 45 4 25 4 48 0 50 -4 3 -4 22 0 44 4
22 4 45 -1 52 -4 7 -6 16 -3 21 4 6 5 48 3 108 -1 21 0 171 1 195 0 11 2 44 3
73 1 28 -1 52 -4 52 -3 0 -3 20 1 45 4 25 4 48 0 50 -4 3 -4 22 0 44 4 22 4
45 -1 52 -4 7 -6 16 -3 21 4 6 5 48 3 108 -1 21 0 171 1 195 0 11 2 44 3 73 1
28 -1 52 -4 52 -3 0 -3 20 1 45 4 25 4 48 0 50 -4 3 -4 22 0 44 4 22 4 45 -1
52 -4 7 -6 16 -3 21 4 6 5 48 3 108 -1 21 0 171 1 195 0 11 2 44 3 73 1 28 -1
52 -4 52 -3 0 -3 20 1 45 4 25 4 48 0 50 -4 3 -4 22 0 44 4 22 4 45 0 51 -4 6
-4 28 0 48 3 20 4 47 1 60 -3 12 -4 65 -1 117 3 52 3 95 0 95 -3 0 -6 33 -7
73 -2 75 -29 168 -64 219 -11 14 -19 29 -19 33 0 3 -19 27 -42 52 -49 51 -159
120 -215 135 -65 16 -244 25 -264 13 -4 -3 -10 -1 -13 3 -3 5 -26 6 -51 2 -25
-4 -47 -4 -50 -1 -2 4 -36 4 -75 1 -39 -3 -73 -3 -75 1 -3 3 -25 3 -50 -1 -25
-4 -45 -4 -45 -1 0 3 -27 6 -60 6 -33 0 -60 -3 -60 -6 0 -3 -22 -3 -50 1 -27
4 -50 3 -50 0 0 -4 -19 -4 -42 0 -24 3 -57 3 -75 -1 -17 -3 -37 -3 -43 1 -6 4
-29 4 -51 0 -22 -4 -41 -4 -44 0 -2 4 -24 4 -49 0 -24 -4 -50 -4 -58 0 -7 4
-21 5 -30 3z"/>
</g>
</svg>
